<svg width="48" height="48" viewBox="0 0 48 48" fill="none" xmlns="http://www.w3.org/2000/svg">
<rect width="48" height="48" rx="5" fill="#3980FF"/>
<path d="M31.6376 16.3196C30.6444 15.3163 29.4614 14.5209 28.1576 13.9796C26.8537 13.4384 25.4552 13.1621 24.0434 13.1671C18.1284 13.1671 13.3076 17.9879 13.3076 23.9029C13.3076 25.7987 13.8059 27.6404 14.7376 29.2654L13.2209 34.8337L18.9084 33.3387C20.4793 34.1946 22.2451 34.6496 24.0434 34.6496C29.9584 34.6496 34.7793 29.8287 34.7793 23.9137C34.7793 21.0429 33.6634 18.3454 31.6376 16.3196ZM24.0434 32.8296C22.4401 32.8296 20.8693 32.3962 19.4934 31.5837L19.1684 31.3887L15.7884 32.2771L16.6876 28.9837L16.4709 28.6479C15.5802 27.2254 15.1072 25.5812 15.1059 23.9029C15.1059 18.9846 19.1143 14.9762 24.0326 14.9762C26.4159 14.9762 28.6584 15.9079 30.3376 17.5979C31.1691 18.4255 31.828 19.4099 32.2761 20.4941C32.7243 21.5783 32.9528 22.7406 32.9484 23.9137C32.9701 28.8321 28.9618 32.8296 24.0434 32.8296ZM28.9401 26.1562C28.6693 26.0262 27.3476 25.3762 27.1093 25.2787C26.8601 25.1921 26.6868 25.1487 26.5026 25.4087C26.3184 25.6796 25.8093 26.2862 25.6576 26.4596C25.5059 26.6437 25.3434 26.6654 25.0726 26.5246C24.8018 26.3946 23.9351 26.1021 22.9168 25.1921C22.1151 24.4771 21.5843 23.5996 21.4218 23.3287C21.2701 23.0579 21.4001 22.9171 21.5409 22.7762C21.6601 22.6571 21.8118 22.4621 21.9418 22.3104C22.0718 22.1587 22.1259 22.0396 22.2126 21.8662C22.2993 21.6821 22.2559 21.5304 22.1909 21.4004C22.1259 21.2704 21.5843 19.9487 21.3676 19.4071C21.1509 18.8871 20.9234 18.9521 20.7609 18.9412H20.2409C20.0568 18.9412 19.7751 19.0062 19.5259 19.2771C19.2876 19.5479 18.5943 20.1979 18.5943 21.5196C18.5943 22.8412 19.5584 24.1196 19.6884 24.2929C19.8184 24.4771 21.5843 27.1854 24.2709 28.3446C24.9101 28.6262 25.4084 28.7887 25.7984 28.9079C26.4376 29.1137 27.0226 29.0812 27.4884 29.0162C28.0084 28.9404 29.0809 28.3662 29.2976 27.7379C29.5251 27.1096 29.5251 26.5787 29.4493 26.4596C29.3734 26.3404 29.2109 26.2862 28.9401 26.1562Z" fill="white"/>
</svg>
