<svg width="285" height="72" viewBox="0 0 285 72" fill="none" xmlns="http://www.w3.org/2000/svg">
<g clip-path="url(#clip0_7622_1524)">
<path d="M37.2783 16.3887L25.4839 26.5634V32.0003L37.2783 44.078V16.3887Z" fill="url(#paint0_linear_7622_1524)"/>
<path d="M105.647 21.8249C104.913 22.4074 103.83 22.7181 102.438 22.7181C100.968 22.7181 99.808 22.4074 98.88 21.7472C97.9905 21.087 97.3718 20.2326 97.0238 19.0676L96.7531 18.1355L93.5435 19.9996L93.7368 20.5821C94.3555 22.3686 95.3996 23.8054 96.9464 24.8152C98.4546 25.8249 100.272 26.3297 102.36 26.3297C104.681 26.3297 106.614 25.7084 108.045 24.5045C109.553 23.2618 110.288 21.5919 110.288 19.5724C110.288 18.9511 110.21 18.3297 110.017 17.786C109.862 17.2423 109.669 16.8152 109.437 16.4268C109.205 15.9996 108.818 15.6113 108.316 15.1841C107.851 14.8346 107.465 14.5627 107.155 14.3686C106.807 14.1355 106.305 13.9025 105.609 13.6307C104.951 13.3588 104.448 13.1647 104.1 13.0482C103.752 12.9317 103.211 12.7375 102.438 12.4656C100.852 11.9608 99.692 11.4171 99.0346 10.9511C98.4933 10.5627 98.2612 10.019 98.2612 9.2035C98.2612 8.27147 98.5706 7.57244 99.1893 7.06758C99.8467 6.52389 100.775 6.25205 101.896 6.25205C104.1 6.25205 105.57 7.26176 106.421 9.32001L106.73 10.0967L109.862 8.3103L109.592 7.68894C108.934 6.21321 107.967 5.00933 106.614 4.03846C105.261 3.06758 103.675 2.60156 101.858 2.60156C99.8467 2.60156 98.1066 3.18409 96.7144 4.34914C95.2836 5.55302 94.5489 7.18409 94.5489 9.24234C94.5489 11.3783 95.477 13.0093 97.3331 14.1355C98.1066 14.6404 99.576 15.2229 101.896 15.9996C103.675 16.5821 104.951 17.1647 105.725 17.6695C106.343 18.0967 106.614 18.7181 106.614 19.5724C106.691 20.5433 106.343 21.2423 105.647 21.8249Z" fill="url(#paint1_linear_7622_1524)"/>
<path d="M121.27 26.2907C123.707 26.2907 125.795 25.4363 127.496 23.7664C129.198 22.0965 130.048 19.9994 130.048 17.514C130.048 15.0674 129.198 12.9315 127.496 11.2616C125.795 9.59167 123.707 8.7373 121.27 8.7373C118.834 8.7373 116.746 9.59167 115.044 11.2616C113.343 12.9315 112.492 15.0286 112.492 17.514C112.492 19.9606 113.343 22.0965 115.044 23.7664C116.746 25.4752 118.834 26.2907 121.27 26.2907ZM121.27 12.2325C122.74 12.2325 123.977 12.7373 124.983 13.747C125.988 14.7956 126.491 15.9994 126.491 17.514C126.491 19.0286 125.988 20.2325 124.983 21.281C123.977 22.3295 122.74 22.7956 121.27 22.7956C119.801 22.7956 118.563 22.2907 117.558 21.281C116.553 20.2325 116.05 19.0286 116.05 17.514C116.05 15.9994 116.553 14.7956 117.558 13.747C118.563 12.7373 119.762 12.2325 121.27 12.2325Z" fill="url(#paint2_linear_7622_1524)"/>
<path d="M133.374 25.9409H136.893V12.6205H141.263V9.12538H136.893C136.932 7.96033 137.202 7.1448 137.705 6.71762C138.247 6.21276 139.175 6.01859 140.451 6.13509L141.263 6.21276V2.71762L140.567 2.67878C138.324 2.52344 136.506 3.02829 135.269 4.19334C134.031 5.35839 133.413 6.98946 133.374 9.12538H130.783V12.6205H133.374V25.9409Z" fill="url(#paint3_linear_7622_1524)"/>
<path d="M147.063 25.3587C147.875 25.8636 148.958 26.0966 150.234 26.0966C150.891 26.0966 151.587 26.0189 152.361 25.9024L153.018 25.7859V22.5626L152.206 22.6014C151.239 22.6403 150.427 22.6403 149.809 22.6403C149.383 22.6403 149.074 22.5238 148.881 22.3296C148.764 22.2131 148.61 21.9024 148.61 21.0481V12.6209H152.98V9.12572H148.61V4.58203L145.091 5.66941V9.12572H140.373V12.6209H145.091V21.1257C145.091 23.184 145.787 24.582 147.063 25.3587Z" fill="url(#paint4_linear_7622_1524)"/>
<path d="M170.15 22.446L167.056 20.6208C166.708 21.281 166.166 21.7858 165.432 22.213C164.697 22.6402 163.808 22.8344 162.802 22.8344C161.333 22.8344 160.173 22.446 159.206 21.6305C158.471 21.0092 157.968 20.2713 157.698 19.3004H170.846L170.923 18.6014C170.962 18.1742 171 17.8247 171 17.5917C171 15.2227 170.227 13.1645 168.719 11.4169C167.172 9.66934 165.161 8.7373 162.686 8.7373C160.134 8.7373 158.046 9.59167 156.422 11.2616C154.797 12.9315 153.985 15.0286 153.985 17.514C153.985 20.0383 154.836 22.1742 156.46 23.8053C158.084 25.4752 160.25 26.2907 162.841 26.2907C164.426 26.2907 165.896 25.9412 167.172 25.2422C168.409 24.582 169.415 23.6111 170.15 22.446ZM162.647 12.2325C163.846 12.2325 164.89 12.6208 165.78 13.3975C166.476 14.0189 166.979 14.7956 167.211 15.8053H157.698C157.968 14.8732 158.432 14.0965 159.167 13.4752C160.095 12.6596 161.255 12.2325 162.647 12.2325Z" fill="url(#paint5_linear_7622_1524)"/>
<path d="M177.071 16.6601C177.071 15.1455 177.458 14.0193 178.193 13.3591C178.966 12.6601 179.933 12.3106 181.132 12.3106H181.905V8.81543H181.132C179.469 8.81543 178.115 9.24261 177.071 10.1358V9.04844H173.552V25.864H177.071V16.6601Z" fill="url(#paint6_linear_7622_1524)"/>
<path d="M187.551 9.12598H184.032V25.9415H187.551V9.12598Z" fill="url(#paint7_linear_7622_1524)"/>
<path d="M185.811 7.41708C186.429 7.41708 186.971 7.18407 187.396 6.75688C187.822 6.3297 188.054 5.78601 188.054 5.16465C188.054 4.54329 187.822 3.9996 187.396 3.57242C186.545 2.71805 185.115 2.71805 184.264 3.57242C183.838 3.9996 183.606 4.54329 183.606 5.16465C183.606 5.78601 183.838 6.3297 184.264 6.75688C184.651 7.18407 185.192 7.41708 185.811 7.41708Z" fill="url(#paint8_linear_7622_1524)"/>
<path d="M205.3 11.2616C203.599 9.59167 201.511 8.7373 199.075 8.7373C196.638 8.7373 194.55 9.59167 192.849 11.2616C191.147 12.9315 190.296 15.0286 190.296 17.514C190.296 19.9606 191.147 22.0965 192.849 23.7664C194.55 25.4363 196.638 26.2907 199.075 26.2907C201.511 26.2907 203.599 25.4363 205.3 23.7664C207.002 22.0965 207.853 19.9994 207.853 17.514C207.853 15.0674 207.002 12.9703 205.3 11.2616ZM199.075 22.8344C197.605 22.8344 196.368 22.3295 195.362 21.3198C194.357 20.2713 193.854 19.0674 193.854 17.5528C193.854 16.0383 194.357 14.8344 195.362 13.7858C196.368 12.7373 197.605 12.2713 199.075 12.2713C200.544 12.2713 201.781 12.7761 202.787 13.7858C203.792 14.8344 204.295 16.0383 204.295 17.5528C204.295 19.0674 203.792 20.2713 202.787 21.3198C201.781 22.3295 200.583 22.8344 199.075 22.8344Z" fill="url(#paint9_linear_7622_1524)"/>
<path d="M109.862 29.0098H93.1182V32.5437H99.6534V51.9612H103.327V32.5437H109.862V29.0098Z" fill="black"/>
<path d="M117.055 34.7568C114.503 34.7568 112.415 35.6112 110.791 37.2811C109.167 38.951 108.354 41.0481 108.354 43.5335C108.354 46.0578 109.205 48.1937 110.829 49.8248C112.454 51.4947 114.619 52.3102 117.21 52.3102C118.795 52.3102 120.265 51.9607 121.541 51.2617C122.817 50.5627 123.823 49.6306 124.557 48.4267L121.464 46.6015C121.116 47.2617 120.574 47.7665 119.84 48.1937C119.105 48.6209 118.215 48.8151 117.21 48.8151C115.741 48.8151 114.58 48.4267 113.614 47.6112C112.879 46.9898 112.376 46.252 112.106 45.2811H125.253L125.331 44.5821C125.369 44.1549 125.408 43.8054 125.408 43.5724C125.408 41.2034 124.635 39.1452 123.127 37.3976C121.58 35.65 119.53 34.7568 117.055 34.7568ZM117.055 38.252C118.254 38.252 119.298 38.6403 120.188 39.417C120.884 40.0384 121.386 40.8151 121.618 41.8248H112.106C112.376 40.8928 112.84 40.1161 113.575 39.4947C114.503 38.6403 115.663 38.252 117.055 38.252Z" fill="black"/>
<path d="M140.296 46.2131C139.832 47.0287 139.252 47.65 138.479 48.1161C137.705 48.5821 136.816 48.8151 135.81 48.8151C134.341 48.8151 133.103 48.3102 132.098 47.3005C131.093 46.252 130.59 45.0481 130.59 43.5335C130.59 42.019 131.093 40.8151 132.098 39.7665C133.103 38.718 134.341 38.252 135.81 38.252C136.816 38.252 137.705 38.485 138.479 38.951C139.252 39.417 139.793 39.9996 140.141 40.7763L140.489 41.553L143.467 39.8442L143.196 39.2229C142.578 37.8636 141.611 36.7763 140.257 35.9607C138.943 35.184 137.435 34.7568 135.81 34.7568C133.335 34.7568 131.209 35.6112 129.546 37.2811C127.883 38.951 127.032 41.0481 127.032 43.5335C127.032 45.9801 127.883 48.0772 129.546 49.786C131.209 51.4559 133.335 52.3102 135.81 52.3102C137.435 52.3102 138.904 51.9219 140.257 51.1452C141.611 50.3685 142.616 49.2811 143.312 47.9219L143.66 47.2617L140.683 45.5141L140.296 46.2131Z" fill="black"/>
<path d="M153.56 34.7573C151.819 34.7573 150.35 35.2622 149.19 36.2331V29.0098H145.671V51.9612H149.19V43.1845C149.19 41.4758 149.577 40.1942 150.35 39.4175C151.123 38.6408 152.129 38.2525 153.366 38.2525C154.488 38.2525 155.3 38.5632 155.88 39.1457C156.46 39.767 156.731 40.6214 156.731 41.7865V51.9224H160.25V41.7865C160.25 39.6894 159.631 37.9806 158.432 36.6991C157.272 35.4175 155.648 34.7573 153.56 34.7573Z" fill="black"/>
<path d="M171.503 34.7568C169.763 34.7568 168.293 35.2617 167.133 36.2326V35.1452H163.614V51.9607H167.133V43.184C167.133 41.4753 167.52 40.1937 168.293 39.417C169.067 38.6403 170.072 38.252 171.31 38.252C172.431 38.252 173.243 38.5627 173.823 39.1452C174.403 39.7665 174.674 40.6209 174.674 41.786V51.9219H178.193V41.786C178.193 39.6889 177.574 37.9801 176.375 36.6986C175.215 35.417 173.553 34.7568 171.503 34.7568Z" fill="black"/>
<path d="M189.368 34.7568C186.932 34.7568 184.844 35.6112 183.143 37.2811C181.441 38.951 180.59 41.0481 180.59 43.5335C180.59 45.9801 181.441 48.1161 183.143 49.786C184.844 51.4559 186.932 52.3102 189.368 52.3102C191.805 52.3102 193.893 51.4559 195.594 49.786C197.296 48.1161 198.147 46.019 198.147 43.5335C198.147 41.0869 197.296 38.951 195.594 37.2811C193.893 35.6112 191.805 34.7568 189.368 34.7568ZM189.368 48.8151C187.899 48.8151 186.662 48.3102 185.656 47.3005C184.651 46.252 184.148 45.0481 184.148 43.5335C184.148 42.019 184.651 40.8151 185.656 39.7665C186.662 38.718 187.899 38.252 189.368 38.252C190.838 38.252 192.075 38.7568 193.081 39.7665C194.086 40.8151 194.589 42.019 194.589 43.5335C194.589 45.0481 194.086 46.252 193.081 47.3005C192.075 48.3102 190.838 48.8151 189.368 48.8151Z" fill="black"/>
<path d="M204.411 28.0771H200.892V51.9218H204.411V28.0771Z" fill="black"/>
<path d="M215.935 34.7568C213.499 34.7568 211.41 35.6112 209.709 37.2811C208.007 38.951 207.157 41.0481 207.157 43.5335C207.157 45.9801 208.007 48.1161 209.709 49.786C211.41 51.4559 213.499 52.3102 215.935 52.3102C218.371 52.3102 220.459 51.4559 222.161 49.786C223.862 48.1161 224.713 46.019 224.713 43.5335C224.713 41.0869 223.862 38.951 222.161 37.2811C220.459 35.6112 218.371 34.7568 215.935 34.7568ZM215.935 48.8151C214.465 48.8151 213.228 48.3102 212.223 47.3005C211.217 46.252 210.714 45.0481 210.714 43.5335C210.714 42.019 211.217 40.8151 212.223 39.7665C213.228 38.718 214.465 38.252 215.935 38.252C217.404 38.252 218.642 38.7568 219.647 39.7665C220.653 40.8151 221.155 42.019 221.155 43.5335C221.155 45.0481 220.653 46.252 219.647 47.3005C218.642 48.3102 217.404 48.8151 215.935 48.8151Z" fill="black"/>
<path d="M251.241 35.1064H247.722V51.922H251.241V35.1064Z" fill="black"/>
<path d="M247.915 29.5919C247.49 30.0191 247.258 30.5628 247.258 31.1842C247.258 31.8055 247.49 32.3492 247.915 32.7764C248.341 33.2036 248.882 33.4366 249.501 33.4366C250.119 33.4366 250.661 33.2036 251.086 32.7764C251.512 32.3492 251.744 31.8055 251.744 31.1842C251.744 30.5628 251.512 30.0191 251.086 29.5919C250.197 28.7376 248.766 28.7376 247.915 29.5919Z" fill="black"/>
<path d="M262.726 34.7568C260.174 34.7568 258.086 35.6112 256.462 37.2811C254.837 38.951 254.025 41.0481 254.025 43.5335C254.025 46.0578 254.876 48.1937 256.5 49.8248C258.124 51.4947 260.29 52.3102 262.881 52.3102C264.466 52.3102 265.936 51.9607 267.212 51.2617C268.488 50.5627 269.493 49.6306 270.228 48.4267L267.135 46.6015C266.787 47.2617 266.245 47.7665 265.51 48.1937C264.776 48.6209 263.886 48.8151 262.881 48.8151C261.411 48.8151 260.251 48.4267 259.285 47.6112C258.55 46.9898 258.047 46.252 257.776 45.2811H270.924L271.002 44.5821C271.04 44.1549 271.079 43.8054 271.079 43.5724C271.079 41.2034 270.306 39.1452 268.797 37.3976C267.212 35.65 265.162 34.7568 262.726 34.7568ZM262.726 38.252C263.925 38.252 264.969 38.6403 265.858 39.417C266.555 40.0384 267.057 40.8151 267.289 41.8248H257.776C258.047 40.8928 258.511 40.1161 259.246 39.4947C260.174 38.6403 261.295 38.252 262.726 38.252Z" fill="black"/>
<path d="M283.879 44.077C283.183 43.3391 282.332 42.7954 281.327 42.4848C280.437 42.2129 279.548 41.9411 278.658 41.7081C277.885 41.5139 277.189 41.2032 276.686 40.8537C276.3 40.5818 276.106 40.2712 276.106 39.844C276.106 39.3391 276.3 38.9508 276.725 38.6789C277.228 38.3294 277.846 38.1741 278.542 38.1741C280.089 38.1741 281.017 38.7178 281.481 39.844L281.829 40.6595L284.846 38.8731L284.536 38.2518C284.034 37.1644 283.222 36.2712 282.177 35.6498C281.133 35.0285 279.896 34.7178 278.542 34.7178C276.88 34.7178 275.449 35.1838 274.327 36.1547C273.167 37.1255 272.587 38.3683 272.587 39.844C272.587 41.0867 272.974 42.0964 273.709 42.9119C274.405 43.6498 275.255 44.1935 276.261 44.5042C277.15 44.776 278.04 45.0479 278.929 45.2809C279.703 45.4751 280.399 45.7857 280.901 46.1353C281.288 46.4071 281.481 46.7178 281.481 47.145C281.481 47.7275 281.288 48.077 280.863 48.3488C280.321 48.6595 279.587 48.8537 278.736 48.8537C277.885 48.8537 277.112 48.6595 276.493 48.2712C275.913 47.9217 275.487 47.4168 275.255 46.7954L274.946 45.9411L271.891 47.7663L272.123 48.3877C272.587 49.5916 273.399 50.5624 274.559 51.3003C275.719 52.0382 277.112 52.3877 278.697 52.3877C280.476 52.3877 281.984 51.9217 283.144 50.9896C284.343 50.0187 284.962 48.7372 284.962 47.2226C285 45.9022 284.614 44.8925 283.879 44.077Z" fill="black"/>
<path d="M240.529 35.1064V36.7374C239.099 35.417 237.32 34.7568 235.154 34.7568C232.795 34.7568 230.746 35.6112 229.044 37.3199C227.382 39.0287 226.531 41.0869 226.531 43.5335C226.531 45.9801 227.382 48.0772 229.044 49.7471C230.707 51.4559 232.757 52.3102 235.154 52.3102C237.32 52.3102 239.137 51.65 240.529 50.3297V50.5627C240.529 51.9219 240.104 52.9704 239.253 53.7471C238.403 54.5238 237.165 54.951 235.657 54.951C233.53 54.951 232.061 54.3297 231.21 53.1258L227.923 54.5627C229.354 57.1258 231.945 58.4462 235.657 58.4462C237.939 58.4462 239.911 57.7471 241.535 56.3879C243.198 54.9898 244.048 53.0481 244.048 50.6015V35.1064H240.529ZM239.021 47.3005C238.016 48.3491 236.778 48.8151 235.309 48.8151C233.839 48.8151 232.602 48.3102 231.597 47.3005C230.591 46.252 230.088 45.0481 230.088 43.5335C230.088 42.019 230.591 40.8151 231.597 39.7665C232.602 38.718 233.839 38.252 235.309 38.252C236.778 38.252 238.016 38.7568 239.021 39.7665C240.027 40.8151 240.529 42.019 240.529 43.5335C240.529 45.0093 240.027 46.252 239.021 47.3005Z" fill="black"/>
<path d="M37.2782 72L0 36H19.3351L37.2782 54.4078V72Z" fill="url(#paint10_linear_7622_1524)"/>
<path d="M37.2782 0L0 36L9.86092 45.7087L37.2782 17.5922V0Z" fill="#3980FF"/>
<path d="M47.5645 55.6112L59.3589 45.4364V39.9995L47.5645 27.9219V55.6112Z" fill="url(#paint11_linear_7622_1524)"/>
<path d="M47.5645 0L84.8426 36H65.5461L47.5645 17.5922V0Z" fill="url(#paint12_linear_7622_1524)"/>
<path d="M47.5645 71.9998L84.8426 35.9998L75.0204 26.291L47.5645 54.4075V71.9998Z" fill="#3980FF"/>
</g>
<defs>
<linearGradient id="paint0_linear_7622_1524" x1="37.3202" y1="30.2749" x2="31.1627" y2="24.8792" gradientUnits="userSpaceOnUse">
<stop stop-color="#3980FF"/>
<stop offset="1" stop-color="#0029BC"/>
</linearGradient>
<linearGradient id="paint1_linear_7622_1524" x1="101.96" y1="26.7862" x2="101.96" y2="7.94584" gradientUnits="userSpaceOnUse">
<stop stop-color="#0029BC"/>
<stop offset="1" stop-color="#3980FF"/>
</linearGradient>
<linearGradient id="paint2_linear_7622_1524" x1="121.258" y1="26.786" x2="121.258" y2="7.94565" gradientUnits="userSpaceOnUse">
<stop stop-color="#0029BC"/>
<stop offset="1" stop-color="#3980FF"/>
</linearGradient>
<linearGradient id="paint3_linear_7622_1524" x1="136.046" y1="26.7858" x2="136.046" y2="7.94538" gradientUnits="userSpaceOnUse">
<stop stop-color="#0029BC"/>
<stop offset="1" stop-color="#3980FF"/>
</linearGradient>
<linearGradient id="paint4_linear_7622_1524" x1="146.706" y1="26.7861" x2="146.706" y2="7.94572" gradientUnits="userSpaceOnUse">
<stop stop-color="#0029BC"/>
<stop offset="1" stop-color="#3980FF"/>
</linearGradient>
<linearGradient id="paint5_linear_7622_1524" x1="162.453" y1="26.786" x2="162.453" y2="7.94565" gradientUnits="userSpaceOnUse">
<stop stop-color="#0029BC"/>
<stop offset="1" stop-color="#3980FF"/>
</linearGradient>
<linearGradient id="paint6_linear_7622_1524" x1="177.728" y1="26.7865" x2="177.728" y2="7.94611" gradientUnits="userSpaceOnUse">
<stop stop-color="#0029BC"/>
<stop offset="1" stop-color="#3980FF"/>
</linearGradient>
<linearGradient id="paint7_linear_7622_1524" x1="185.8" y1="26.7864" x2="185.8" y2="7.94598" gradientUnits="userSpaceOnUse">
<stop stop-color="#0029BC"/>
<stop offset="1" stop-color="#3980FF"/>
</linearGradient>
<linearGradient id="paint8_linear_7622_1524" x1="185.8" y1="26.7862" x2="185.8" y2="7.94581" gradientUnits="userSpaceOnUse">
<stop stop-color="#0029BC"/>
<stop offset="1" stop-color="#3980FF"/>
</linearGradient>
<linearGradient id="paint9_linear_7622_1524" x1="199.08" y1="26.786" x2="199.08" y2="7.94565" gradientUnits="userSpaceOnUse">
<stop stop-color="#0029BC"/>
<stop offset="1" stop-color="#3980FF"/>
</linearGradient>
<linearGradient id="paint10_linear_7622_1524" x1="13.0853" y1="41.6573" x2="26.6149" y2="52.5387" gradientUnits="userSpaceOnUse">
<stop stop-color="#0029BC"/>
<stop offset="1" stop-color="#3980FF"/>
</linearGradient>
<linearGradient id="paint11_linear_7622_1524" x1="47.5412" y1="41.7293" x2="53.6987" y2="47.125" gradientUnits="userSpaceOnUse">
<stop stop-color="#3980FF"/>
<stop offset="1" stop-color="#0029BC"/>
</linearGradient>
<linearGradient id="paint12_linear_7622_1524" x1="71.776" y1="30.3471" x2="58.2464" y2="19.4657" gradientUnits="userSpaceOnUse">
<stop stop-color="#0029BC"/>
<stop offset="1" stop-color="#3980FF"/>
</linearGradient>
<clipPath id="clip0_7622_1524">
<rect width="285" height="72" fill="white"/>
</clipPath>
</defs>
</svg>
