<svg width="35" height="53" viewBox="0 0 35 53" fill="none" xmlns="http://www.w3.org/2000/svg">
<path d="M29.1837 1H6.21375C3.55378 1 1.39746 2.8787 1.39746 5.1962V47.8038C1.39746 50.1213 3.55378 52 6.21375 52H29.1837C31.8437 52 34 50.1213 34 47.8038V5.1962C34 2.8787 31.8437 1 29.1837 1Z" stroke="#14161D"/>
<path fill-rule="evenodd" clip-rule="evenodd" d="M10.5215 23.1114C10.5215 22.8153 10.8132 22.5752 11.1732 22.5752H30.7239C31.0838 22.5752 31.3756 22.8153 31.3756 23.1114C31.3756 23.4076 31.0838 23.6477 30.7239 23.6477H11.1732C10.8132 23.6477 10.5215 23.4076 10.5215 23.1114ZM11.8249 25.2564C11.8249 24.9602 12.1166 24.7202 12.4766 24.7202H22.9036C23.2635 24.7202 23.5553 24.9602 23.5553 25.2564C23.5553 25.5526 23.2635 25.7927 22.9036 25.7927H12.4766C12.1166 25.7927 11.8249 25.5526 11.8249 25.2564ZM11.1732 26.8652C10.8132 26.8652 10.5215 27.1052 10.5215 27.4014C10.5215 27.6975 10.8132 27.9376 11.1732 27.9376H29.4205C29.7804 27.9376 30.0722 27.6975 30.0722 27.4014C30.0722 27.1052 29.7804 26.8652 29.4205 26.8652H11.1732ZM11.8249 29.5464C11.8249 29.2502 12.1166 29.0101 12.4766 29.0101H20.2968C20.6568 29.0101 20.9485 29.2502 20.9485 29.5464C20.9485 29.8425 20.6568 30.0826 20.2968 30.0826H12.4766C12.1166 30.0826 11.8249 29.8425 11.8249 29.5464ZM12.4766 31.1551C12.1166 31.1551 11.8249 31.3952 11.8249 31.6914C11.8249 31.9875 12.1166 32.2276 12.4766 32.2276H20.2968C20.6568 32.2276 20.9485 31.9875 20.9485 31.6914C20.9485 31.3952 20.6568 31.1551 20.2968 31.1551H12.4766Z" fill="#E4E8F4"/>
<path d="M5.22437 27.3611C5.00633 27.3611 4.83008 27.5061 4.83008 27.6855C4.83008 27.8649 5.00633 28.0099 5.22437 28.0099C5.68293 28.0099 6.04449 28.1316 6.32955 28.3818C7.16189 29.1134 7.04993 30.6487 7.04797 30.6866V34.8233C7.04797 35.8651 7.39969 36.6687 8.09244 37.2099C8.92399 37.8601 9.97361 37.9061 10.2527 37.9061C10.2914 37.9061 10.315 37.9048 10.3213 37.9048C10.539 37.8961 10.7062 37.7433 10.6948 37.5639C10.6833 37.3841 10.4944 37.2459 10.2804 37.2566C10.2701 37.2605 9.33997 37.2904 8.63536 36.7394C8.10462 36.3251 7.83652 35.6801 7.83652 34.8233L7.83574 30.7084C7.84206 30.634 7.97298 28.8772 6.90682 27.9399C6.79681 27.8432 6.67775 27.7579 6.55152 27.6859C6.67775 27.6132 6.79681 27.5288 6.90682 27.4315C7.97298 26.4929 7.84206 24.7369 7.83652 24.6847V20.5481C7.83652 19.6945 8.10306 19.0517 8.62904 18.6368C9.32576 18.0872 10.2685 18.1131 10.2823 18.1144C10.4996 18.1255 10.6833 17.986 10.6948 17.8072C10.7054 17.6281 10.5386 17.4759 10.3213 17.4662C10.2669 17.4668 9.03993 17.4208 8.09322 18.1615C7.39969 18.7033 7.04876 19.5066 7.04876 20.5481L7.04954 24.7065C7.08499 25.1338 7.02432 26.3777 6.33151 26.9879C6.04528 27.2391 5.68371 27.3611 5.22437 27.3611Z" fill="#3980FF"/>
<path d="M8.83398 1H26.5647C26.3849 2.09495 25.304 2.93671 23.9976 2.93671H11.4011C10.0947 2.93671 9.01382 2.09495 8.83398 1Z" fill="#14161D" stroke="#14161D"/>
</svg>
