<svg width="41" height="53" viewBox="0 0 41 53" fill="none" xmlns="http://www.w3.org/2000/svg">
<path d="M25.1292 1.17383H4.86432C2.51762 1.17383 0.615234 3.03286 0.615234 5.3261V47.4876C0.615234 49.7809 2.51762 51.6399 4.86432 51.6399H25.1292C27.4759 51.6399 29.3783 49.7809 29.3783 47.4876V5.3261C29.3783 3.03286 27.4759 1.17383 25.1292 1.17383Z" stroke="#14161D"/>
<path fill-rule="evenodd" clip-rule="evenodd" d="M8.66406 23.054C8.66406 22.761 8.92146 22.5234 9.23901 22.5234H26.4873C26.8048 22.5234 27.0622 22.761 27.0622 23.054C27.0622 23.3471 26.8048 23.5847 26.4873 23.5847H9.23901C8.92146 23.5847 8.66406 23.3471 8.66406 23.054ZM9.81395 25.1766C9.81395 24.8835 10.0713 24.646 10.3889 24.646H19.588C19.9055 24.646 20.1629 24.8835 20.1629 25.1766C20.1629 25.4696 19.9055 25.7072 19.588 25.7072H10.3889C10.0713 25.7072 9.81395 25.4696 9.81395 25.1766ZM9.23901 26.7685C8.92146 26.7685 8.66406 27.006 8.66406 27.2991C8.66406 27.5922 8.92146 27.8297 9.23901 27.8297H25.3374C25.6549 27.8297 25.9123 27.5922 25.9123 27.2991C25.9123 27.006 25.6549 26.7685 25.3374 26.7685H9.23901ZM9.81395 29.4216C9.81395 29.1286 10.0713 28.891 10.3889 28.891H17.2882C17.6057 28.891 17.8631 29.1286 17.8631 29.4216C17.8631 29.7147 17.6057 29.9522 17.2882 29.9522H10.3889C10.0713 29.9522 9.81395 29.7147 9.81395 29.4216ZM10.3889 31.0135C10.0713 31.0135 9.81395 31.2511 9.81395 31.5442C9.81395 31.8372 10.0713 32.0748 10.3889 32.0748H17.2882C17.6057 32.0748 17.8631 31.8372 17.8631 31.5442C17.8631 31.2511 17.6057 31.0135 17.2882 31.0135H10.3889Z" fill="#E4E8F4"/>
<path d="M3.9919 27.2585C3.79954 27.2585 3.64404 27.402 3.64404 27.5795C3.64404 27.757 3.79954 27.9005 3.9919 27.9005C4.39645 27.9005 4.71544 28.0209 4.96693 28.2685C5.70125 28.9924 5.60247 30.5116 5.60075 30.5492V34.6425C5.60075 35.6734 5.91104 36.4686 6.52221 37.0041C7.25583 37.6476 8.18184 37.6931 8.42808 37.6931C8.46218 37.6931 8.48305 37.6918 8.48863 37.6918C8.68066 37.6832 8.82813 37.532 8.81807 37.3544C8.80795 37.1766 8.64133 37.0398 8.45246 37.0504C8.44338 37.0542 7.62282 37.0838 7.00119 36.5386C6.53296 36.1287 6.29643 35.4904 6.29643 34.6425L6.29574 30.5707C6.30131 30.4972 6.41682 28.7587 5.47621 27.8312C5.37916 27.7355 5.27412 27.6511 5.16275 27.5798C5.27412 27.5079 5.37916 27.4244 5.47621 27.3281C6.41682 26.3994 6.30131 24.6618 6.29643 24.6101V20.5168C6.29643 19.6721 6.53158 19.0361 6.99561 18.6255C7.61029 18.0817 8.442 18.1073 8.45419 18.1086C8.64587 18.1195 8.80795 17.9815 8.81807 17.8046C8.82744 17.6274 8.68031 17.4768 8.48863 17.4672C8.44062 17.4678 7.35812 17.4222 6.5229 18.1552C5.91104 18.6913 5.60144 19.4862 5.60144 20.5168L5.60213 24.6316C5.6334 25.0545 5.57988 26.2854 4.96865 26.8892C4.71613 27.1377 4.39715 27.2585 3.9919 27.2585Z" fill="#3980FF"/>
<path d="M7.17529 1.17383H22.818C22.6593 2.25732 21.7057 3.09026 20.5531 3.09026H9.44012C8.28751 3.09026 7.33395 2.25732 7.17529 1.17383Z" fill="#14161D" stroke="#14161D"/>
<path d="M33.5804 10.208H25.1756C21.8232 10.208 19.1055 12.8638 19.1055 16.1398V24.3531C19.1055 27.6292 21.8232 30.2849 25.1756 30.2849H33.5804C36.9328 30.2849 39.6505 27.6292 39.6505 24.3531V16.1398C39.6505 12.8638 36.9328 10.208 33.5804 10.208Z" fill="#F4F6FA" stroke="#14161D"/>
<path d="M33.7289 12.2158H25.0275C22.8916 12.2158 21.1602 13.9078 21.1602 15.995V24.4982C21.1602 26.5854 22.8916 28.2774 25.0275 28.2774H33.7289C35.8647 28.2774 37.5962 26.5854 37.5962 24.4982V15.995C37.5962 13.9078 35.8647 12.2158 33.7289 12.2158Z" fill="#E4E8F4"/>
<path d="M25.5771 21.953L25.2277 21.5954L25.0771 21.7425V21.953H25.5771ZM31.1243 16.5322L31.4738 16.1746C31.2795 15.9848 30.9691 15.9848 30.7749 16.1746L31.1243 16.5322ZM34.2061 19.5438L34.5555 19.9014C34.6518 19.8073 34.7061 19.6784 34.7061 19.5438C34.7061 19.4092 34.6518 19.2802 34.5555 19.1862L34.2061 19.5438ZM28.6589 24.9645V25.4645H28.8626L29.0084 25.3221L28.6589 24.9645ZM25.5771 24.9645H25.0771C25.0771 25.2407 25.301 25.4645 25.5771 25.4645V24.9645ZM25.9266 22.3106L31.4738 16.8898L30.7749 16.1746L25.2277 21.5954L25.9266 22.3106ZM30.7749 16.8898L33.8566 19.9014L34.5555 19.1862L31.4738 16.1746L30.7749 16.8898ZM33.8566 19.1862L28.3094 24.6069L29.0084 25.3221L34.5555 19.9014L33.8566 19.1862ZM28.6589 24.4645H25.5771V25.4645H28.6589V24.4645ZM26.0771 24.9645V21.953H25.0771V24.9645H26.0771ZM28.9258 18.6968L32.0076 21.7083L32.7065 20.9931L29.6247 17.9815L28.9258 18.6968ZM30.1998 25.4645H34.5142V24.4645H30.1998V25.4645Z" fill="black"/>
</svg>
