<svg width="44" height="53" viewBox="0 0 44 53" fill="none" xmlns="http://www.w3.org/2000/svg">
<path d="M27.5608 1.17383H5.33747C2.76397 1.17383 0.677734 3.03286 0.677734 5.3261V47.4876C0.677734 49.7809 2.76397 51.6399 5.33747 51.6399H27.5608C30.1343 51.6399 32.2206 49.7809 32.2206 47.4876V5.3261C32.2206 3.03286 30.1343 1.17383 27.5608 1.17383Z" stroke="#14161D"/>
<path fill-rule="evenodd" clip-rule="evenodd" d="M9.50439 23.054C9.50439 22.761 9.78667 22.5234 10.1349 22.5234H29.0501C29.3984 22.5234 29.6806 22.761 29.6806 23.054C29.6806 23.3471 29.3984 23.5847 29.0501 23.5847H10.1349C9.78667 23.5847 9.50439 23.3471 9.50439 23.054ZM10.7654 25.1766C10.7654 24.8835 11.0477 24.646 11.3959 24.646H21.484C21.8323 24.646 22.1145 24.8835 22.1145 25.1766C22.1145 25.4696 21.8323 25.7072 21.484 25.7072H11.3959C11.0477 25.7072 10.7654 25.4696 10.7654 25.1766ZM10.1349 26.7685C9.78667 26.7685 9.50439 27.006 9.50439 27.2991C9.50439 27.5922 9.78667 27.8297 10.1349 27.8297H27.7891C28.1374 27.8297 28.4196 27.5922 28.4196 27.2991C28.4196 27.006 28.1374 26.7685 27.7891 26.7685H10.1349ZM10.7654 29.4216C10.7654 29.1286 11.0477 28.891 11.3959 28.891H18.962C19.3102 28.891 19.5925 29.1286 19.5925 29.4216C19.5925 29.7147 19.3102 29.9522 18.962 29.9522H11.3959C11.0477 29.9522 10.7654 29.7147 10.7654 29.4216ZM11.3959 31.0135C11.0477 31.0135 10.7654 31.2511 10.7654 31.5442C10.7654 31.8372 11.0477 32.0748 11.3959 32.0748H18.962C19.3102 32.0748 19.5925 31.8372 19.5925 31.5442C19.5925 31.2511 19.3102 31.0135 18.962 31.0135H11.3959Z" fill="#E4E8F4"/>
<path d="M4.3805 27.2585C4.16954 27.2585 3.99902 27.402 3.99902 27.5795C3.99902 27.757 4.16954 27.9005 4.3805 27.9005C4.82415 27.9005 5.17396 28.0209 5.44976 28.2685C6.25504 28.9924 6.14672 30.5116 6.14483 30.5492V34.6425C6.14483 35.6734 6.48512 36.4686 7.15534 37.0041C7.95987 37.6476 8.97537 37.6931 9.24542 37.6931C9.2828 37.6931 9.30569 37.6918 9.31181 37.6918C9.5224 37.6832 9.68412 37.532 9.67309 37.3544C9.66199 37.1766 9.47927 37.0398 9.27215 37.0504C9.26219 37.0542 8.36233 37.0838 7.68062 36.5386C7.16714 36.1287 6.90775 35.4904 6.90775 34.6425L6.90699 30.5707C6.9131 30.4972 7.03977 28.7587 6.00826 27.8312C5.90183 27.7355 5.78664 27.6511 5.66451 27.5798C5.78664 27.5079 5.90183 27.4244 6.00826 27.3281C7.03977 26.3994 6.9131 24.6618 6.90775 24.6101V20.5168C6.90775 19.6721 7.16562 19.0361 7.67451 18.6255C8.34858 18.0817 9.26067 18.1073 9.27404 18.1086C9.48425 18.1195 9.66199 17.9815 9.67309 17.8046C9.68337 17.6274 9.52202 17.4768 9.31181 17.4672C9.25916 17.4678 8.07204 17.4222 7.1561 18.1552C6.48512 18.6913 6.14559 19.4862 6.14559 20.5168L6.14634 24.6316C6.18064 25.0545 6.12194 26.2854 5.45165 26.8892C5.17472 27.1377 4.82491 27.2585 4.3805 27.2585Z" fill="#3980FF"/>
<path d="M7.87158 1.17383H25.026C24.852 2.25732 23.8063 3.09026 22.5423 3.09026H10.3553C9.09129 3.09026 8.04557 2.25732 7.87158 1.17383Z" fill="#14161D" stroke="#14161D"/>
<path d="M36.8294 10.208H27.6123C23.9359 10.208 20.9556 12.8638 20.9556 16.1398V24.3531C20.9556 27.6292 23.9359 30.2849 27.6123 30.2849H36.8294C40.5058 30.2849 43.4862 27.6292 43.4862 24.3531V16.1398C43.4862 12.8638 40.5058 10.208 36.8294 10.208Z" fill="#F4F6FA" stroke="#14161D"/>
<path d="M36.9924 12.2158H27.45C25.1078 12.2158 23.209 13.9078 23.209 15.995V24.4982C23.209 26.5854 25.1078 28.2774 27.45 28.2774H36.9924C39.3347 28.2774 41.2335 26.5854 41.2335 24.4982V15.995C41.2335 13.9078 39.3347 12.2158 36.9924 12.2158Z" fill="#E4E8F4"/>
<path d="M31.4328 18.038V17.7368C31.4328 17.0716 32.0381 16.5322 32.7846 16.5322C33.5312 16.5322 34.1365 17.0716 34.1365 17.7368V18.038M28.0532 20.1461C30.558 22.6969 35.0113 22.6969 37.5161 20.1461M28.7291 18.3391H36.8402C37.2135 18.3391 37.5161 18.6088 37.5161 18.9415V24.3622C37.5161 24.6949 37.2135 24.9645 36.8402 24.9645H28.7291C28.3558 24.9645 28.0532 24.6949 28.0532 24.3622V18.9415C28.0532 18.6088 28.3558 18.3391 28.7291 18.3391Z" stroke="black"/>
</svg>
