<svg width="100" height="100" viewBox="0 0 100 100" fill="none" xmlns="http://www.w3.org/2000/svg">
<path fill-rule="evenodd" clip-rule="evenodd" d="M34.3755 62.2135C34.3755 61.7048 34.8127 61.291 35.3521 61.291H64.6491C65.1885 61.291 65.6257 61.7048 65.6257 62.2135C65.6257 62.7235 65.1885 63.136 64.6491 63.136H35.3521C34.8127 63.136 34.3755 62.7235 34.3755 62.2135ZM36.3287 65.9035C36.3287 65.3935 36.7659 64.981 37.3052 64.981H52.9304C53.4697 64.981 53.9069 65.3935 53.9069 65.9035C53.9069 66.4122 53.4697 66.8247 52.9304 66.8247H37.3052C36.7659 66.8247 36.3287 66.4122 36.3287 65.9035ZM35.3521 68.6698C34.8127 68.6698 34.3755 69.0835 34.3755 69.5923C34.3755 70.1023 34.8127 70.5148 35.3521 70.5148H62.696C63.2354 70.5148 63.6726 70.1023 63.6726 69.5923C63.6726 69.0835 63.2354 68.6698 62.696 68.6698H35.3521ZM36.3287 73.281C36.3287 72.7723 36.7659 72.3598 37.3052 72.3598H49.0241C49.5634 72.3598 50.0006 72.7723 50.0006 73.281C50.0006 73.791 49.5634 74.2035 49.0241 74.2035H37.3052C36.7659 74.2035 36.3287 73.791 36.3287 73.281ZM37.3052 76.0485C36.7659 76.0485 36.3287 76.461 36.3287 76.971C36.3287 77.4798 36.7659 77.8935 37.3052 77.8935H49.0241C49.5634 77.8935 50.0006 77.4798 50.0006 76.971C50.0006 76.461 49.5634 76.0485 49.0241 76.0485H37.3052Z" fill="#E4E8F4"/>
<path d="M19.3414 69.5217C19.0146 69.5217 18.7505 69.7704 18.7505 70.0792C18.7505 70.3879 19.0146 70.6367 19.3414 70.6367C20.0285 70.6367 20.5704 70.8467 20.9975 71.2767C22.2449 72.5354 22.077 75.1754 22.0741 75.2404V82.3554C22.0741 84.1479 22.6011 85.5304 23.6392 86.4604C24.8854 87.5792 26.4581 87.6579 26.8765 87.6579C26.9344 87.6579 26.9699 87.6554 26.9792 87.6554C27.3055 87.6404 27.556 87.3779 27.5389 87.0692C27.5217 86.7604 27.2387 86.5229 26.9179 86.5404C26.9025 86.5479 25.5086 86.5992 24.4529 85.6517C23.6575 84.9392 23.2557 83.8291 23.2557 82.3554L23.2546 75.2779C23.264 75.1504 23.4602 72.1292 21.8625 70.5167C21.6977 70.3504 21.5192 70.2029 21.3302 70.0792C21.5192 69.9542 21.6977 69.8092 21.8625 69.6417C23.4602 68.0279 23.264 65.0079 23.2557 64.9179V57.8029C23.2557 56.3354 23.6552 55.2292 24.4434 54.5154C25.4874 53.5704 26.9001 53.6154 26.9207 53.6167C27.2464 53.6367 27.5217 53.3967 27.5389 53.0892C27.5547 52.7804 27.3049 52.5192 26.9792 52.5029C26.8977 52.5029 25.059 52.4242 23.6404 53.6979C22.6011 54.6304 22.0752 56.0117 22.0752 57.8029L22.0765 64.9554C22.1296 65.6904 22.0386 67.8292 21.0005 68.8792C20.5715 69.3117 20.0297 69.5217 19.3414 69.5217Z" fill="#3980FF"/>
<path d="M80.6598 69.5217C80.9865 69.5217 81.2505 69.7704 81.2505 70.0792C81.2505 70.3879 80.9865 70.6367 80.6598 70.6367C79.9725 70.6367 79.4308 70.8467 79.0035 71.2767C77.7563 72.5354 77.9241 75.1754 77.927 75.2404V82.3554C77.927 84.1479 77.4 85.5304 76.3619 86.4604C75.1158 87.5792 73.5429 87.6579 73.1246 87.6579C73.0668 87.6579 73.0313 87.6554 73.0218 87.6554C72.6956 87.6404 72.4451 87.3779 72.4623 87.0692C72.4794 86.7604 72.7624 86.5229 73.0833 86.5404C73.0986 86.5479 74.4924 86.5992 75.5483 85.6517C76.3435 84.9392 76.7454 83.8291 76.7454 82.3554L76.7465 75.2779C76.737 75.1504 76.5409 72.1292 78.1385 70.5167C78.3034 70.3504 78.4819 70.2029 78.6709 70.0792C78.4819 69.9542 78.3034 69.8092 78.1385 69.6417C76.5409 68.0279 76.737 65.0079 76.7454 64.9179V57.8029C76.7454 56.3354 76.3459 55.2292 75.5578 54.5154C74.5138 53.5704 73.101 53.6154 73.0803 53.6167C72.7548 53.6367 72.4794 53.3967 72.4623 53.0892C72.4464 52.7804 72.6963 52.5192 73.0218 52.5029C73.1034 52.5029 74.9421 52.4242 76.3608 53.6979C77.4 54.6304 77.9259 56.0117 77.9259 57.8029L77.9246 64.9554C77.8715 65.6904 77.9625 67.8292 79.0006 68.8792C79.4295 69.3117 79.9714 69.5217 80.6598 69.5217Z" fill="#3980FF"/>
<path d="M75.9084 18.2519C75.9572 18.5516 76.2141 18.7764 76.5177 18.7764H82.9773C86.8418 18.7764 89.9747 21.9092 89.9747 25.7744V91.7531C89.9747 95.6181 86.8418 98.7506 82.9773 98.7506H16.9979C13.1333 98.7506 10.0005 95.6181 10.0005 91.7531V25.7744C10.0005 21.9092 13.1333 18.7764 16.9979 18.7764H23.4833C23.7869 18.7764 24.0438 18.5516 24.0926 18.2519C24.1541 17.8739 23.8661 17.5264 23.4832 17.5264H16.9979C12.443 17.5264 8.75049 21.2189 8.75049 25.7744V91.7531C8.75049 96.3081 12.443 100.001 16.9979 100.001H82.9773C87.5322 100.001 91.2247 96.3081 91.2247 91.7531V25.7744C91.2247 21.2189 87.5322 17.5264 82.9773 17.5264H76.5178C76.1349 17.5264 75.8469 17.8739 75.9084 18.2519Z" fill="#14161D"/>
<path d="M50.3196 44.6393C62.6464 44.6393 72.6392 34.6464 72.6392 22.3196C72.6392 9.99284 62.6464 0 50.3196 0C37.9928 0 28 9.99284 28 22.3196C28 34.6464 37.9928 44.6393 50.3196 44.6393Z" fill="#FEF4FF"/>
<path d="M45.2 18.7998V18.2998C44.9239 18.2998 44.7 18.5237 44.7 18.7998H45.2ZM45.2 20.3998L45.5536 20.7534L45.7 20.6069V20.3998H45.2ZM42.4687 20.8684L42.1151 21.222H42.1151L42.4687 20.8684ZM48.4 30.7998H48.9V30.5927L48.7536 30.4463L48.4 30.7998ZM46.8 29.1998H46.3V29.4069L46.4465 29.5534L46.8 29.1998ZM46.8 26.7998H47.3V26.5927L47.1536 26.4463L46.8 26.7998ZM45.2 25.1998H44.7V25.4069L44.8465 25.5534L45.2 25.1998ZM45.2 23.5998V23.0998C44.9239 23.0998 44.7 23.3237 44.7 23.5998H45.2ZM52.7001 10.7998V13.9998H53.7001V10.7998H52.7001ZM51.6 15.0998H50V16.0998H51.6V15.0998ZM46.8 18.2998H45.2V19.2998H46.8V18.2998ZM44.7 18.7998V20.3998H45.7V18.7998H44.7ZM44.8465 20.0463L44.3779 20.5149L45.085 21.222L45.5536 20.7534L44.8465 20.0463ZM42.8222 20.5149L39.9536 17.6463L39.2465 18.3534L42.1151 21.222L42.8222 20.5149ZM47.9 17.1998C47.9 17.8073 47.4076 18.2998 46.8 18.2998V19.2998C47.9598 19.2998 48.9 18.3596 48.9 17.1998H47.9ZM50 15.0998C48.8403 15.0998 47.9 16.04 47.9 17.1998H48.9C48.9 16.5923 49.3925 16.0998 50 16.0998V15.0998ZM44.3779 20.5149C43.9483 20.9445 43.2518 20.9445 42.8222 20.5149L42.1151 21.222C42.9352 22.0421 44.2649 22.0421 45.085 21.222L44.3779 20.5149ZM52.7001 13.9998C52.7001 14.6073 52.2076 15.0998 51.6 15.0998V16.0998C52.7598 16.0998 53.7001 15.1596 53.7001 13.9998H52.7001ZM48.9 33.1998V30.7998H47.9V33.1998H48.9ZM48.7536 30.4463L47.1536 28.8463L46.4465 29.5534L48.0465 31.1534L48.7536 30.4463ZM47.3 29.1998V26.7998H46.3V29.1998H47.3ZM47.1536 26.4463L45.5536 24.8463L44.8465 25.5534L46.4465 27.1534L47.1536 26.4463ZM45.7 25.1998V23.5998H44.7V25.1998H45.7ZM45.2 24.0998H51.6V23.0998H45.2V24.0998ZM52.7001 25.1998V26.2665H53.7001V25.1998H52.7001ZM55.3334 28.8998H59.6V27.8998H55.3334V28.8998ZM54.3001 27.8665C54.3001 28.4372 54.7627 28.8998 55.3334 28.8998V27.8998C55.315 27.8998 55.3001 27.8849 55.3001 27.8665H54.3001ZM53.7334 27.2998C54.0463 27.2998 54.3001 27.5535 54.3001 27.8665H55.3001C55.3001 27.0012 54.5986 26.2998 53.7334 26.2998V27.2998ZM52.7001 26.2665C52.7001 26.8372 53.1627 27.2998 53.7334 27.2998V26.2998C53.715 26.2998 53.7001 26.2849 53.7001 26.2665H52.7001ZM51.6 24.0998C52.2076 24.0998 52.7001 24.5923 52.7001 25.1998H53.7001C53.7001 24.04 52.7598 23.0998 51.6 23.0998V24.0998ZM50 32.6998C44.0906 32.6998 39.3 27.9093 39.3 21.9998H38.3C38.3 28.4615 43.5383 33.6998 50 33.6998V32.6998ZM60.7001 21.9998C60.7001 27.9093 55.9095 32.6998 50 32.6998V33.6998C56.4618 33.6998 61.7001 28.4615 61.7001 21.9998H60.7001ZM50 11.2998C55.9095 11.2998 60.7001 16.0904 60.7001 21.9998H61.7001C61.7001 15.5381 56.4618 10.2998 50 10.2998V11.2998ZM50 10.2998C43.5383 10.2998 38.3 15.5381 38.3 21.9998H39.3C39.3 16.0904 44.0906 11.2998 50 11.2998V10.2998Z" fill="black"/>
</svg>
